<svg width="20" height="20" viewBox="0 0 20 20" fill="none" xmlns="http://www.w3.org/2000/svg">
<path d="M0 3.5C0 1.567 1.567 0 3.5 0H16.5C18.433 0 20 1.567 20 3.5V16.5C20 18.433 18.433 20 16.5 20H3.5C1.567 20 0 18.433 0 16.5V3.5Z" fill="#FEE500"/>
<g clip-path="url(#clip0_3470_619)">
<path d="M15.291 9.89746C15.2773 10.6904 15.0381 11.4082 14.5732 12.0508C14.1084 12.6934 13.4795 13.2061 12.6865 13.5889C11.9072 13.958 11.0254 14.1494 10.041 14.1631C9.27539 14.1631 8.56445 14.04 7.9082 13.7939C7.64844 13.9854 7.2793 14.1973 6.80078 14.4297C6.28125 14.6621 5.7207 14.792 5.11914 14.8193C4.98242 14.8193 4.87988 14.751 4.81152 14.6143C4.77051 14.4775 4.79785 14.3613 4.89355 14.2656V14.2451C4.89355 14.2451 4.90039 14.2383 4.91406 14.2246C4.94141 14.1973 4.97559 14.1562 5.0166 14.1016C5.1123 14.0059 5.21484 13.8623 5.32422 13.6709C5.55664 13.3154 5.70703 12.8848 5.77539 12.3789C5.13281 11.668 4.80469 10.8408 4.79102 9.89746C4.80469 9.10449 5.04395 8.38672 5.50879 7.74414C5.97363 7.10156 6.60254 6.58887 7.39551 6.20605C8.1748 5.83691 9.05664 5.64551 10.041 5.63184C11.0254 5.64551 11.9072 5.83691 12.6865 6.20605C13.4795 6.58887 14.1084 7.10156 14.5732 7.74414C15.0381 8.38672 15.2773 9.10449 15.291 9.89746Z" fill="black"/>
</g>
<defs>
<clipPath id="clip0_3470_619">
<rect width="10.5" height="10.5" fill="white" transform="translate(4.75 4.75)"/>
</clipPath>
</defs>
</svg>
